<svg xmlns="http://www.w3.org/2000/svg" version="1.1" xmlns:xlink="http://www.w3.org/1999/xlink" xmlns:svgjs="http://svgjs.dev/svgjs" width="1440" height="560" preserveAspectRatio="none" viewBox="0 0 1440 560"><g mask="url(&quot;#SvgjsMask1000&quot;)" fill="none"><rect width="1440" height="560" x="0" y="0" fill="#0e2a47"></rect><path d="M-43.11 367.66L-43.11 367.66" stroke="#132e65" stroke-width="1.5"></path><path d="M-43.11 367.66L-50.35 490.04" stroke="#132e65" stroke-width="1.5"></path><path d="M-43.11 367.66L93.25 406.68" stroke="#132e65" stroke-width="1.5"></path><path d="M-43.11 367.66L101.06 538.39" stroke="#132e65" stroke-width="1.5"></path><path d="M-43.11 367.66L234.46 380.1" stroke="#132e65" stroke-width="1.5"></path><path d="M-43.11 367.66L-51.02 652.62" stroke="#132e65" stroke-width="1.5"></path><path d="M-50.35 490.04L-50.35 490.04" stroke="#132e65" stroke-width="1.5"></path><path d="M-51.02 652.62L-51.02 652.62" stroke="#132e65" stroke-width="1.5"></path><path d="M-51.02 652.62L101.04 703.21" stroke="#132e65" stroke-width="1.5"></path><path d="M-51.02 652.62L-50.35 490.04" stroke="#132e65" stroke-width="1.5"></path><path d="M93.25 406.68L93.25 406.68" stroke="#132e65" stroke-width="1.5"></path><path d="M93.25 406.68L101.06 538.39" stroke="#132e65" stroke-width="1.5"></path><path d="M93.25 406.68L234.46 380.1" stroke="#132e65" stroke-width="1.5"></path><path d="M93.25 406.68L-50.35 490.04" stroke="#132e65" stroke-width="1.5"></path><path d="M93.25 406.68L261.43 510.76" stroke="#132e65" stroke-width="1.5"></path><path d="M101.06 538.39L101.06 538.39" stroke="#132e65" stroke-width="1.5"></path><path d="M101.06 538.39L196.21 657.11" stroke="#132e65" stroke-width="1.5"></path><path d="M101.06 538.39L-50.35 490.04" stroke="#132e65" stroke-width="1.5"></path><path d="M101.04 703.21L101.04 703.21" stroke="#132e65" stroke-width="1.5"></path><path d="M101.04 703.21L196.21 657.11" stroke="#132e65" stroke-width="1.5"></path><path d="M101.04 703.21L101.06 538.39" stroke="#132e65" stroke-width="1.5"></path><path d="M101.04 703.21L261.43 510.76" stroke="#132e65" stroke-width="1.5"></path><path d="M101.04 703.21L-50.35 490.04" stroke="#132e65" stroke-width="1.5"></path><path d="M101.04 703.21L93.25 406.68" stroke="#132e65" stroke-width="1.5"></path><path d="M234.46 380.1L234.46 380.1" stroke="#132e65" stroke-width="1.5"></path><path d="M234.46 380.1L355.73 388.87" stroke="#132e65" stroke-width="1.5"></path><path d="M234.46 380.1L261.43 510.76" stroke="#132e65" stroke-width="1.5"></path><path d="M261.43 510.76L261.43 510.76" stroke="#132e65" stroke-width="1.5"></path><path d="M261.43 510.76L373.59 523.81" stroke="#132e65" stroke-width="1.5"></path><path d="M261.43 510.76L355.73 388.87" stroke="#132e65" stroke-width="1.5"></path><path d="M261.43 510.76L196.21 657.11" stroke="#132e65" stroke-width="1.5"></path><path d="M196.21 657.11L196.21 657.11" stroke="#132e65" stroke-width="1.5"></path><path d="M196.21 657.11L411.97 700.47" stroke="#132e65" stroke-width="1.5"></path><path d="M196.21 657.11L373.59 523.81" stroke="#132e65" stroke-width="1.5"></path><path d="M196.21 657.11L-51.02 652.62" stroke="#132e65" stroke-width="1.5"></path><path d="M355.73 388.87L355.73 388.87" stroke="#132e65" stroke-width="1.5"></path><path d="M355.73 388.87L373.59 523.81" stroke="#132e65" stroke-width="1.5"></path><path d="M373.59 523.81L373.59 523.81" stroke="#132e65" stroke-width="1.5"></path><path d="M373.59 523.81L508.92 639.23" stroke="#132e65" stroke-width="1.5"></path><path d="M373.59 523.81L507.38 405.63" stroke="#132e65" stroke-width="1.5"></path><path d="M373.59 523.81L411.97 700.47" stroke="#132e65" stroke-width="1.5"></path><path d="M411.97 700.47L411.97 700.47" stroke="#132e65" stroke-width="1.5"></path><path d="M411.97 700.47L508.92 639.23" stroke="#132e65" stroke-width="1.5"></path><path d="M411.97 700.47L553.14 555.6" stroke="#132e65" stroke-width="1.5"></path><path d="M411.97 700.47L261.43 510.76" stroke="#132e65" stroke-width="1.5"></path><path d="M411.97 700.47L702.38 698.61" stroke="#132e65" stroke-width="1.5"></path><path d="M507.38 405.63L507.38 405.63" stroke="#132e65" stroke-width="1.5"></path><path d="M507.38 405.63L355.73 388.87" stroke="#132e65" stroke-width="1.5"></path><path d="M507.38 405.63L553.14 555.6" stroke="#132e65" stroke-width="1.5"></path><path d="M507.38 405.63L688.89 377.63" stroke="#132e65" stroke-width="1.5"></path><path d="M507.38 405.63L690.25 519.93" stroke="#132e65" stroke-width="1.5"></path><path d="M507.38 405.63L508.92 639.23" stroke="#132e65" stroke-width="1.5"></path><path d="M553.14 555.6L553.14 555.6" stroke="#132e65" stroke-width="1.5"></path><path d="M553.14 555.6L508.92 639.23" stroke="#132e65" stroke-width="1.5"></path><path d="M553.14 555.6L690.25 519.93" stroke="#132e65" stroke-width="1.5"></path><path d="M553.14 555.6L373.59 523.81" stroke="#132e65" stroke-width="1.5"></path><path d="M508.92 639.23L508.92 639.23" stroke="#132e65" stroke-width="1.5"></path><path d="M703.73 203.72L703.73 203.72" stroke="#132e65" stroke-width="1.5"></path><path d="M703.73 203.72L814.53 206.07" stroke="#132e65" stroke-width="1.5"></path><path d="M703.73 203.72L793.58 349.98" stroke="#132e65" stroke-width="1.5"></path><path d="M703.73 203.72L688.89 377.63" stroke="#132e65" stroke-width="1.5"></path><path d="M703.73 203.72L858.97 106.05" stroke="#132e65" stroke-width="1.5"></path><path d="M688.89 377.63L688.89 377.63" stroke="#132e65" stroke-width="1.5"></path><path d="M688.89 377.63L793.58 349.98" stroke="#132e65" stroke-width="1.5"></path><path d="M688.89 377.63L690.25 519.93" stroke="#132e65" stroke-width="1.5"></path><path d="M690.25 519.93L690.25 519.93" stroke="#132e65" stroke-width="1.5"></path><path d="M690.25 519.93L852.75 558.03" stroke="#132e65" stroke-width="1.5"></path><path d="M690.25 519.93L702.38 698.61" stroke="#132e65" stroke-width="1.5"></path><path d="M690.25 519.93L793.58 349.98" stroke="#132e65" stroke-width="1.5"></path><path d="M702.38 698.61L702.38 698.61" stroke="#132e65" stroke-width="1.5"></path><path d="M702.38 698.61L808.06 708.91" stroke="#132e65" stroke-width="1.5"></path><path d="M702.38 698.61L508.92 639.23" stroke="#132e65" stroke-width="1.5"></path><path d="M702.38 698.61L852.75 558.03" stroke="#132e65" stroke-width="1.5"></path><path d="M702.38 698.61L553.14 555.6" stroke="#132e65" stroke-width="1.5"></path><path d="M858.97 106.05L858.97 106.05" stroke="#132e65" stroke-width="1.5"></path><path d="M858.97 106.05L814.53 206.07" stroke="#132e65" stroke-width="1.5"></path><path d="M858.97 106.05L990.91 98.38" stroke="#132e65" stroke-width="1.5"></path><path d="M858.97 106.05L961.42 217.02" stroke="#132e65" stroke-width="1.5"></path><path d="M858.97 106.05L954.78 -111.3" stroke="#132e65" stroke-width="1.5"></path><path d="M814.53 206.07L814.53 206.07" stroke="#132e65" stroke-width="1.5"></path><path d="M814.53 206.07L793.58 349.98" stroke="#132e65" stroke-width="1.5"></path><path d="M814.53 206.07L961.42 217.02" stroke="#132e65" stroke-width="1.5"></path><path d="M793.58 349.98L793.58 349.98" stroke="#132e65" stroke-width="1.5"></path><path d="M852.75 558.03L852.75 558.03" stroke="#132e65" stroke-width="1.5"></path><path d="M852.75 558.03L966.71 543.54" stroke="#132e65" stroke-width="1.5"></path><path d="M852.75 558.03L808.06 708.91" stroke="#132e65" stroke-width="1.5"></path><path d="M852.75 558.03L1007.95 647.52" stroke="#132e65" stroke-width="1.5"></path><path d="M808.06 708.91L808.06 708.91" stroke="#132e65" stroke-width="1.5"></path><path d="M808.06 708.91L1007.95 647.52" stroke="#132e65" stroke-width="1.5"></path><path d="M954.78 -111.3L954.78 -111.3" stroke="#132e65" stroke-width="1.5"></path><path d="M954.78 -111.3L1135.48 -80.4" stroke="#132e65" stroke-width="1.5"></path><path d="M954.78 -111.3L990.91 98.38" stroke="#132e65" stroke-width="1.5"></path><path d="M954.78 -111.3L1119.76 106.45" stroke="#132e65" stroke-width="1.5"></path><path d="M954.78 -111.3L1262.04 -108.04" stroke="#132e65" stroke-width="1.5"></path><path d="M990.91 98.38L990.91 98.38" stroke="#132e65" stroke-width="1.5"></path><path d="M990.91 98.38L961.42 217.02" stroke="#132e65" stroke-width="1.5"></path><path d="M990.91 98.38L1119.76 106.45" stroke="#132e65" stroke-width="1.5"></path><path d="M990.91 98.38L1150.02 224.72" stroke="#132e65" stroke-width="1.5"></path><path d="M990.91 98.38L814.53 206.07" stroke="#132e65" stroke-width="1.5"></path><path d="M961.42 217.02L961.42 217.02" stroke="#132e65" stroke-width="1.5"></path><path d="M966.71 543.54L966.71 543.54" stroke="#132e65" stroke-width="1.5"></path><path d="M966.71 543.54L1007.95 647.52" stroke="#132e65" stroke-width="1.5"></path><path d="M966.71 543.54L1096.41 529.77" stroke="#132e65" stroke-width="1.5"></path><path d="M966.71 543.54L1102.23 700.27" stroke="#132e65" stroke-width="1.5"></path><path d="M1007.95 647.52L1007.95 647.52" stroke="#132e65" stroke-width="1.5"></path><path d="M1007.95 647.52L1102.23 700.27" stroke="#132e65" stroke-width="1.5"></path><path d="M1007.95 647.52L1096.41 529.77" stroke="#132e65" stroke-width="1.5"></path><path d="M1007.95 647.52L1258.06 708.98" stroke="#132e65" stroke-width="1.5"></path><path d="M1135.48 -80.4L1135.48 -80.4" stroke="#132e65" stroke-width="1.5"></path><path d="M1135.48 -80.4L1262.04 -108.04" stroke="#132e65" stroke-width="1.5"></path><path d="M1119.76 106.45L1119.76 106.45" stroke="#132e65" stroke-width="1.5"></path><path d="M1119.76 106.45L1150.02 224.72" stroke="#132e65" stroke-width="1.5"></path><path d="M1119.76 106.45L1256.75 76.17" stroke="#132e65" stroke-width="1.5"></path><path d="M1119.76 106.45L1135.48 -80.4" stroke="#132e65" stroke-width="1.5"></path><path d="M1119.76 106.45L961.42 217.02" stroke="#132e65" stroke-width="1.5"></path><path d="M1150.02 224.72L1150.02 224.72" stroke="#132e65" stroke-width="1.5"></path><path d="M1150.02 224.72L1241.81 260.81" stroke="#132e65" stroke-width="1.5"></path><path d="M1102.18 380.2L1102.18 380.2" stroke="#132e65" stroke-width="1.5"></path><path d="M1102.18 380.2L1096.41 529.77" stroke="#132e65" stroke-width="1.5"></path><path d="M1102.18 380.2L1150.02 224.72" stroke="#132e65" stroke-width="1.5"></path><path d="M1102.18 380.2L1276.98 376.17" stroke="#132e65" stroke-width="1.5"></path><path d="M1102.18 380.2L1241.81 260.81" stroke="#132e65" stroke-width="1.5"></path><path d="M1096.41 529.77L1096.41 529.77" stroke="#132e65" stroke-width="1.5"></path><path d="M1096.41 529.77L1102.23 700.27" stroke="#132e65" stroke-width="1.5"></path><path d="M1102.23 700.27L1102.23 700.27" stroke="#132e65" stroke-width="1.5"></path><path d="M1102.23 700.27L1258.06 708.98" stroke="#132e65" stroke-width="1.5"></path><path d="M1262.04 -108.04L1262.04 -108.04" stroke="#132e65" stroke-width="1.5"></path><path d="M1262.04 -108.04L1441.46 -102.59" stroke="#132e65" stroke-width="1.5"></path><path d="M1262.04 -108.04L1256.75 76.17" stroke="#132e65" stroke-width="1.5"></path><path d="M1262.04 -108.04L1119.76 106.45" stroke="#132e65" stroke-width="1.5"></path><path d="M1256.75 76.17L1256.75 76.17" stroke="#132e65" stroke-width="1.5"></path><path d="M1256.75 76.17L1150.02 224.72" stroke="#132e65" stroke-width="1.5"></path><path d="M1241.81 260.81L1241.81 260.81" stroke="#132e65" stroke-width="1.5"></path><path d="M1241.81 260.81L1276.98 376.17" stroke="#132e65" stroke-width="1.5"></path><path d="M1241.81 260.81L1256.75 76.17" stroke="#132e65" stroke-width="1.5"></path><path d="M1241.81 260.81L1119.76 106.45" stroke="#132e65" stroke-width="1.5"></path><path d="M1276.98 376.17L1276.98 376.17" stroke="#132e65" stroke-width="1.5"></path><path d="M1276.98 376.17L1400.09 406.34" stroke="#132e65" stroke-width="1.5"></path><path d="M1289.65 525.66L1289.65 525.66" stroke="#132e65" stroke-width="1.5"></path><path d="M1289.65 525.66L1419.65 490.59" stroke="#132e65" stroke-width="1.5"></path><path d="M1289.65 525.66L1276.98 376.17" stroke="#132e65" stroke-width="1.5"></path><path d="M1289.65 525.66L1400.09 406.34" stroke="#132e65" stroke-width="1.5"></path><path d="M1289.65 525.66L1258.06 708.98" stroke="#132e65" stroke-width="1.5"></path><path d="M1289.65 525.66L1096.41 529.77" stroke="#132e65" stroke-width="1.5"></path><path d="M1289.65 525.66L1437.51 709.8" stroke="#132e65" stroke-width="1.5"></path><path d="M1258.06 708.98L1258.06 708.98" stroke="#132e65" stroke-width="1.5"></path><path d="M1258.06 708.98L1437.51 709.8" stroke="#132e65" stroke-width="1.5"></path><path d="M1258.06 708.98L1096.41 529.77" stroke="#132e65" stroke-width="1.5"></path><path d="M1441.46 -102.59L1441.46 -102.59" stroke="#132e65" stroke-width="1.5"></path><path d="M1441.46 -102.59L1595.75 -67.33" stroke="#132e65" stroke-width="1.5"></path><path d="M1441.46 -102.59L1458.19 74.96" stroke="#132e65" stroke-width="1.5"></path><path d="M1441.46 -102.59L1556.3 48" stroke="#132e65" stroke-width="1.5"></path><path d="M1458.19 74.96L1458.19 74.96" stroke="#132e65" stroke-width="1.5"></path><path d="M1458.19 74.96L1556.3 48" stroke="#132e65" stroke-width="1.5"></path><path d="M1458.19 74.96L1446.53 250.44" stroke="#132e65" stroke-width="1.5"></path><path d="M1446.53 250.44L1446.53 250.44" stroke="#132e65" stroke-width="1.5"></path><path d="M1446.53 250.44L1400.09 406.34" stroke="#132e65" stroke-width="1.5"></path><path d="M1446.53 250.44L1609.09 187.99" stroke="#132e65" stroke-width="1.5"></path><path d="M1446.53 250.44L1569.8 379.89" stroke="#132e65" stroke-width="1.5"></path><path d="M1446.53 250.44L1241.81 260.81" stroke="#132e65" stroke-width="1.5"></path><path d="M1400.09 406.34L1400.09 406.34" stroke="#132e65" stroke-width="1.5"></path><path d="M1400.09 406.34L1419.65 490.59" stroke="#132e65" stroke-width="1.5"></path><path d="M1400.09 406.34L1569.8 379.89" stroke="#132e65" stroke-width="1.5"></path><path d="M1400.09 406.34L1241.81 260.81" stroke="#132e65" stroke-width="1.5"></path><path d="M1419.65 490.59L1419.65 490.59" stroke="#132e65" stroke-width="1.5"></path><path d="M1419.65 490.59L1592.72 535.08" stroke="#132e65" stroke-width="1.5"></path><path d="M1419.65 490.59L1276.98 376.17" stroke="#132e65" stroke-width="1.5"></path><path d="M1419.65 490.59L1569.8 379.89" stroke="#132e65" stroke-width="1.5"></path><path d="M1419.65 490.59L1437.51 709.8" stroke="#132e65" stroke-width="1.5"></path><path d="M1437.51 709.8L1437.51 709.8" stroke="#132e65" stroke-width="1.5"></path><path d="M1437.51 709.8L1545.51 702.1" stroke="#132e65" stroke-width="1.5"></path><path d="M1595.75 -67.33L1595.75 -67.33" stroke="#132e65" stroke-width="1.5"></path><path d="M1595.75 -67.33L1556.3 48" stroke="#132e65" stroke-width="1.5"></path><path d="M1595.75 -67.33L1458.19 74.96" stroke="#132e65" stroke-width="1.5"></path><path d="M1595.75 -67.33L1609.09 187.99" stroke="#132e65" stroke-width="1.5"></path><path d="M1595.75 -67.33L1262.04 -108.04" stroke="#132e65" stroke-width="1.5"></path><path d="M1595.75 -67.33L1446.53 250.44" stroke="#132e65" stroke-width="1.5"></path><path d="M1556.3 48L1556.3 48" stroke="#132e65" stroke-width="1.5"></path><path d="M1556.3 48L1609.09 187.99" stroke="#132e65" stroke-width="1.5"></path><path d="M1609.09 187.99L1609.09 187.99" stroke="#132e65" stroke-width="1.5"></path><path d="M1609.09 187.99L1458.19 74.96" stroke="#132e65" stroke-width="1.5"></path><path d="M1609.09 187.99L1569.8 379.89" stroke="#132e65" stroke-width="1.5"></path><path d="M1569.8 379.89L1569.8 379.89" stroke="#132e65" stroke-width="1.5"></path><path d="M1569.8 379.89L1592.72 535.08" stroke="#132e65" stroke-width="1.5"></path><path d="M1592.72 535.08L1592.72 535.08" stroke="#132e65" stroke-width="1.5"></path><path d="M1592.72 535.08L1545.51 702.1" stroke="#132e65" stroke-width="1.5"></path><path d="M1592.72 535.08L1400.09 406.34" stroke="#132e65" stroke-width="1.5"></path><path d="M1545.51 702.1L1545.51 702.1" stroke="#132e65" stroke-width="1.5"></path><path d="M1545.51 702.1L1419.65 490.59" stroke="#132e65" stroke-width="1.5"></path><path d="M1545.51 702.1L1258.06 708.98" stroke="#132e65" stroke-width="1.5"></path><circle r="5" cx="-43.11" cy="367.66" fill="#132e65"></circle><circle r="5" cx="-50.35" cy="490.04" fill="#132e65"></circle><circle r="5" cx="-51.02" cy="652.62" fill="#132e65"></circle><circle r="5" cx="93.25" cy="406.68" fill="#132e65"></circle><circle r="5" cx="101.06" cy="538.39" fill="#132e65"></circle><circle r="5" cx="101.04" cy="703.21" fill="#132e65"></circle><circle r="5" cx="234.46" cy="380.1" fill="#132e65"></circle><circle r="5" cx="261.43" cy="510.76" fill="#132e65"></circle><circle r="5" cx="196.21" cy="657.11" fill="#132e65"></circle><circle r="5" cx="355.73" cy="388.87" fill="#132e65"></circle><circle r="5" cx="373.59" cy="523.81" fill="#132e65"></circle><circle r="5" cx="411.97" cy="700.47" fill="#132e65"></circle><circle r="5" cx="507.38" cy="405.63" fill="#132e65"></circle><circle r="5" cx="553.14" cy="555.6" fill="#132e65"></circle><circle r="5" cx="508.92" cy="639.23" fill="#132e65"></circle><circle r="5" cx="703.73" cy="203.72" fill="#132e65"></circle><circle r="5" cx="688.89" cy="377.63" fill="#132e65"></circle><circle r="5" cx="690.25" cy="519.93" fill="#132e65"></circle><circle r="5" cx="702.38" cy="698.61" fill="#132e65"></circle><circle r="5" cx="858.97" cy="106.05" fill="#132e65"></circle><circle r="5" cx="814.53" cy="206.07" fill="#132e65"></circle><circle r="5" cx="793.58" cy="349.98" fill="#132e65"></circle><circle r="5" cx="852.75" cy="558.03" fill="#132e65"></circle><circle r="5" cx="808.06" cy="708.91" fill="#132e65"></circle><circle r="5" cx="954.78" cy="-111.3" fill="#132e65"></circle><circle r="5" cx="990.91" cy="98.38" fill="#132e65"></circle><circle r="5" cx="961.42" cy="217.02" fill="#132e65"></circle><circle r="5" cx="966.71" cy="543.54" fill="#132e65"></circle><circle r="5" cx="1007.95" cy="647.52" fill="#132e65"></circle><circle r="5" cx="1135.48" cy="-80.4" fill="#132e65"></circle><circle r="5" cx="1119.76" cy="106.45" fill="#132e65"></circle><circle r="5" cx="1150.02" cy="224.72" fill="#132e65"></circle><circle r="5" cx="1102.18" cy="380.2" fill="#132e65"></circle><circle r="5" cx="1096.41" cy="529.77" fill="#132e65"></circle><circle r="5" cx="1102.23" cy="700.27" fill="#132e65"></circle><circle r="5" cx="1262.04" cy="-108.04" fill="#132e65"></circle><circle r="5" cx="1256.75" cy="76.17" fill="#132e65"></circle><circle r="5" cx="1241.81" cy="260.81" fill="#132e65"></circle><circle r="5" cx="1276.98" cy="376.17" fill="#132e65"></circle><circle r="5" cx="1289.65" cy="525.66" fill="#132e65"></circle><circle r="5" cx="1258.06" cy="708.98" fill="#132e65"></circle><circle r="5" cx="1441.46" cy="-102.59" fill="#132e65"></circle><circle r="5" cx="1458.19" cy="74.96" fill="#132e65"></circle><circle r="5" cx="1446.53" cy="250.44" fill="#132e65"></circle><circle r="5" cx="1400.09" cy="406.34" fill="#132e65"></circle><circle r="5" cx="1419.65" cy="490.59" fill="#132e65"></circle><circle r="5" cx="1437.51" cy="709.8" fill="#132e65"></circle><circle r="5" cx="1595.75" cy="-67.33" fill="#132e65"></circle><circle r="5" cx="1556.3" cy="48" fill="#132e65"></circle><circle r="5" cx="1609.09" cy="187.99" fill="#132e65"></circle><circle r="5" cx="1569.8" cy="379.89" fill="#132e65"></circle><circle r="5" cx="1592.72" cy="535.08" fill="#132e65"></circle><circle r="5" cx="1545.51" cy="702.1" fill="#132e65"></circle><path d="M188.62 529.03L188.62 529.03" stroke="hsl(228.5, 77.2%, 51.5%)" stroke-width="1.5"></path><path d="M188.62 529.03L98.21 532.51" stroke="hsl(228.5, 77.2%, 51.5%)" stroke-width="1.5"></path><path d="M188.62 529.03L218.4 673.1" stroke="hsl(228.5, 77.2%, 51.5%)" stroke-width="1.5"></path><path d="M188.62 529.03L367.31 552.16" stroke="hsl(228.5, 77.2%, 51.5%)" stroke-width="1.5"></path><path d="M188.62 529.03L344 651.1" stroke="hsl(228.5, 77.2%, 51.5%)" stroke-width="1.5"></path><path d="M188.62 529.03L-69.36 549.09" stroke="hsl(228.5, 77.2%, 51.5%)" stroke-width="1.5"></path><path d="M815.72 675.26L815.72 675.26" stroke="hsl(228.5, 77.2%, 51.5%)" stroke-width="1.5"></path><path d="M815.72 675.26L649.26 644.71" stroke="hsl(228.5, 77.2%, 51.5%)" stroke-width="1.5"></path><path d="M815.72 675.26L820.95 490.64" stroke="hsl(228.5, 77.2%, 51.5%)" stroke-width="1.5"></path><path d="M815.72 675.26L1003.8 683.39" stroke="hsl(228.5, 77.2%, 51.5%)" stroke-width="1.5"></path><path d="M815.72 675.26L672.24 523.26" stroke="hsl(228.5, 77.2%, 51.5%)" stroke-width="1.5"></path><path d="M1136.03 217.74L1136.03 217.74" stroke="hsl(228.5, 77.2%, 51.5%)" stroke-width="1.5"></path><path d="M1136.03 217.74L1149.77 72.4" stroke="hsl(228.5, 77.2%, 51.5%)" stroke-width="1.5"></path><path d="M1136.03 217.74L1295.32 224.25" stroke="hsl(228.5, 77.2%, 51.5%)" stroke-width="1.5"></path><path d="M1136.03 217.74L1094.27 384.19" stroke="hsl(228.5, 77.2%, 51.5%)" stroke-width="1.5"></path><path d="M1136.03 217.74L1241.34 355.26" stroke="hsl(228.5, 77.2%, 51.5%)" stroke-width="1.5"></path><path d="M1136.03 217.74L1295.33 73.22" stroke="hsl(228.5, 77.2%, 51.5%)" stroke-width="1.5"></path><path d="M1136.03 217.74L939.48 403.33" stroke="hsl(228.5, 77.2%, 51.5%)" stroke-width="1.5"></path><path d="M1280.69 556.77L1280.69 556.77" stroke="hsl(228.5, 77.2%, 51.5%)" stroke-width="1.5"></path><path d="M1280.69 556.77L1308.93 647.06" stroke="hsl(228.5, 77.2%, 51.5%)" stroke-width="1.5"></path><path d="M1280.69 556.77L1146.17 554.34" stroke="hsl(228.5, 77.2%, 51.5%)" stroke-width="1.5"></path><path d="M1280.69 556.77L1418.01 488.13" stroke="hsl(228.5, 77.2%, 51.5%)" stroke-width="1.5"></path><path d="M1280.69 556.77L1241.34 355.26" stroke="hsl(228.5, 77.2%, 51.5%)" stroke-width="1.5"></path><path d="M1280.69 556.77L1095.15 650.56" stroke="hsl(228.5, 77.2%, 51.5%)" stroke-width="1.5"></path><path d="M1308.93 647.06L1308.93 647.06" stroke="hsl(228.5, 77.2%, 51.5%)" stroke-width="1.5"></path><path d="M1308.93 647.06L1451.11 695.24" stroke="hsl(228.5, 77.2%, 51.5%)" stroke-width="1.5"></path><path d="M1308.93 647.06L1146.17 554.34" stroke="hsl(228.5, 77.2%, 51.5%)" stroke-width="1.5"></path><path d="M1308.93 647.06L1418.01 488.13" stroke="hsl(228.5, 77.2%, 51.5%)" stroke-width="1.5"></path><path d="M1308.93 647.06L1095.15 650.56" stroke="hsl(228.5, 77.2%, 51.5%)" stroke-width="1.5"></path><path d="M1308.93 647.06L1411.29 385.53" stroke="hsl(228.5, 77.2%, 51.5%)" stroke-width="1.5"></path><path d="M1601.31 194.94L1601.31 194.94" stroke="hsl(228.5, 77.2%, 51.5%)" stroke-width="1.5"></path><path d="M1601.31 194.94L1603.58 104.15" stroke="hsl(228.5, 77.2%, 51.5%)" stroke-width="1.5"></path><path d="M1601.31 194.94L1581.03 349.53" stroke="hsl(228.5, 77.2%, 51.5%)" stroke-width="1.5"></path><path d="M1601.31 194.94L1429.21 251.53" stroke="hsl(228.5, 77.2%, 51.5%)" stroke-width="1.5"></path><path d="M1601.31 194.94L1405.4 93.39" stroke="hsl(228.5, 77.2%, 51.5%)" stroke-width="1.5"></path><path d="M1601.31 194.94L1411.29 385.53" stroke="hsl(228.5, 77.2%, 51.5%)" stroke-width="1.5"></path><path d="M1601.31 194.94L1562.79 -78.87" stroke="hsl(228.5, 77.2%, 51.5%)" stroke-width="1.5"></path><path d="M1581.03 349.53L1581.03 349.53" stroke="hsl(228.5, 77.2%, 51.5%)" stroke-width="1.5"></path><path d="M1581.03 349.53L1411.29 385.53" stroke="hsl(228.5, 77.2%, 51.5%)" stroke-width="1.5"></path><path d="M1581.03 349.53L1429.21 251.53" stroke="hsl(228.5, 77.2%, 51.5%)" stroke-width="1.5"></path><path d="M1581.03 349.53L1594.96 537.31" stroke="hsl(228.5, 77.2%, 51.5%)" stroke-width="1.5"></path><path d="M-69.36 549.09L-69.36 549.09" stroke="hsl(228.5, 77.2%, 51.5%)" stroke-width="1.5"></path><path d="M-69.36 549.09L-76.62 689.31" stroke="hsl(228.5, 77.2%, 51.5%)" stroke-width="1.5"></path><path d="M-69.36 549.09L98.21 532.51" stroke="hsl(228.5, 77.2%, 51.5%)" stroke-width="1.5"></path><path d="M-69.36 549.09L218.4 673.1" stroke="hsl(228.5, 77.2%, 51.5%)" stroke-width="1.5"></path><path d="M-69.36 549.09L344 651.1" stroke="hsl(228.5, 77.2%, 51.5%)" stroke-width="1.5"></path><path d="M-69.36 549.09L367.31 552.16" stroke="hsl(228.5, 77.2%, 51.5%)" stroke-width="1.5"></path><path d="M-76.62 689.31L-76.62 689.31" stroke="hsl(228.5, 77.2%, 51.5%)" stroke-width="1.5"></path><path d="M-76.62 689.31L98.21 532.51" stroke="hsl(228.5, 77.2%, 51.5%)" stroke-width="1.5"></path><path d="M-76.62 689.31L218.4 673.1" stroke="hsl(228.5, 77.2%, 51.5%)" stroke-width="1.5"></path><path d="M98.21 532.51L98.21 532.51" stroke="hsl(228.5, 77.2%, 51.5%)" stroke-width="1.5"></path><path d="M98.21 532.51L218.4 673.1" stroke="hsl(228.5, 77.2%, 51.5%)" stroke-width="1.5"></path><path d="M98.21 532.51L367.31 552.16" stroke="hsl(228.5, 77.2%, 51.5%)" stroke-width="1.5"></path><path d="M98.21 532.51L344 651.1" stroke="hsl(228.5, 77.2%, 51.5%)" stroke-width="1.5"></path><path d="M218.4 673.1L218.4 673.1" stroke="hsl(228.5, 77.2%, 51.5%)" stroke-width="1.5"></path><path d="M218.4 673.1L344 651.1" stroke="hsl(228.5, 77.2%, 51.5%)" stroke-width="1.5"></path><path d="M218.4 673.1L367.31 552.16" stroke="hsl(228.5, 77.2%, 51.5%)" stroke-width="1.5"></path><path d="M367.31 552.16L367.31 552.16" stroke="hsl(228.5, 77.2%, 51.5%)" stroke-width="1.5"></path><path d="M367.31 552.16L344 651.1" stroke="hsl(228.5, 77.2%, 51.5%)" stroke-width="1.5"></path><path d="M367.31 552.16L496.2 548.37" stroke="hsl(228.5, 77.2%, 51.5%)" stroke-width="1.5"></path><path d="M367.31 552.16L544.3 665.88" stroke="hsl(228.5, 77.2%, 51.5%)" stroke-width="1.5"></path><path d="M344 651.1L344 651.1" stroke="hsl(228.5, 77.2%, 51.5%)" stroke-width="1.5"></path><path d="M344 651.1L496.2 548.37" stroke="hsl(228.5, 77.2%, 51.5%)" stroke-width="1.5"></path><path d="M344 651.1L544.3 665.88" stroke="hsl(228.5, 77.2%, 51.5%)" stroke-width="1.5"></path><path d="M496.2 548.37L496.2 548.37" stroke="hsl(228.5, 77.2%, 51.5%)" stroke-width="1.5"></path><path d="M496.2 548.37L544.3 665.88" stroke="hsl(228.5, 77.2%, 51.5%)" stroke-width="1.5"></path><path d="M496.2 548.37L672.24 523.26" stroke="hsl(228.5, 77.2%, 51.5%)" stroke-width="1.5"></path><path d="M496.2 548.37L649.26 644.71" stroke="hsl(228.5, 77.2%, 51.5%)" stroke-width="1.5"></path><path d="M496.2 548.37L672.13 395.62" stroke="hsl(228.5, 77.2%, 51.5%)" stroke-width="1.5"></path><path d="M544.3 665.88L544.3 665.88" stroke="hsl(228.5, 77.2%, 51.5%)" stroke-width="1.5"></path><path d="M544.3 665.88L649.26 644.71" stroke="hsl(228.5, 77.2%, 51.5%)" stroke-width="1.5"></path><path d="M544.3 665.88L672.24 523.26" stroke="hsl(228.5, 77.2%, 51.5%)" stroke-width="1.5"></path><path d="M672.13 395.62L672.13 395.62" stroke="hsl(228.5, 77.2%, 51.5%)" stroke-width="1.5"></path><path d="M672.13 395.62L672.24 523.26" stroke="hsl(228.5, 77.2%, 51.5%)" stroke-width="1.5"></path><path d="M672.13 395.62L810.09 391.04" stroke="hsl(228.5, 77.2%, 51.5%)" stroke-width="1.5"></path><path d="M672.13 395.62L820.95 490.64" stroke="hsl(228.5, 77.2%, 51.5%)" stroke-width="1.5"></path><path d="M672.13 395.62L649.26 644.71" stroke="hsl(228.5, 77.2%, 51.5%)" stroke-width="1.5"></path><path d="M672.24 523.26L672.24 523.26" stroke="hsl(228.5, 77.2%, 51.5%)" stroke-width="1.5"></path><path d="M672.24 523.26L649.26 644.71" stroke="hsl(228.5, 77.2%, 51.5%)" stroke-width="1.5"></path><path d="M649.26 644.71L649.26 644.71" stroke="hsl(228.5, 77.2%, 51.5%)" stroke-width="1.5"></path><path d="M649.26 644.71L820.95 490.64" stroke="hsl(228.5, 77.2%, 51.5%)" stroke-width="1.5"></path><path d="M810.09 391.04L810.09 391.04" stroke="hsl(228.5, 77.2%, 51.5%)" stroke-width="1.5"></path><path d="M810.09 391.04L820.95 490.64" stroke="hsl(228.5, 77.2%, 51.5%)" stroke-width="1.5"></path><path d="M810.09 391.04L939.48 403.33" stroke="hsl(228.5, 77.2%, 51.5%)" stroke-width="1.5"></path><path d="M810.09 391.04L672.24 523.26" stroke="hsl(228.5, 77.2%, 51.5%)" stroke-width="1.5"></path><path d="M810.09 391.04L998.91 492.75" stroke="hsl(228.5, 77.2%, 51.5%)" stroke-width="1.5"></path><path d="M820.95 490.64L820.95 490.64" stroke="hsl(228.5, 77.2%, 51.5%)" stroke-width="1.5"></path><path d="M820.95 490.64L939.48 403.33" stroke="hsl(228.5, 77.2%, 51.5%)" stroke-width="1.5"></path><path d="M820.95 490.64L672.24 523.26" stroke="hsl(228.5, 77.2%, 51.5%)" stroke-width="1.5"></path><path d="M820.95 490.64L998.91 492.75" stroke="hsl(228.5, 77.2%, 51.5%)" stroke-width="1.5"></path><path d="M939.48 403.33L939.48 403.33" stroke="hsl(228.5, 77.2%, 51.5%)" stroke-width="1.5"></path><path d="M939.48 403.33L998.91 492.75" stroke="hsl(228.5, 77.2%, 51.5%)" stroke-width="1.5"></path><path d="M939.48 403.33L1094.27 384.19" stroke="hsl(228.5, 77.2%, 51.5%)" stroke-width="1.5"></path><path d="M998.91 492.75L998.91 492.75" stroke="hsl(228.5, 77.2%, 51.5%)" stroke-width="1.5"></path><path d="M998.91 492.75L1094.27 384.19" stroke="hsl(228.5, 77.2%, 51.5%)" stroke-width="1.5"></path><path d="M1003.8 683.39L1003.8 683.39" stroke="hsl(228.5, 77.2%, 51.5%)" stroke-width="1.5"></path><path d="M1003.8 683.39L1095.15 650.56" stroke="hsl(228.5, 77.2%, 51.5%)" stroke-width="1.5"></path><path d="M1003.8 683.39L998.91 492.75" stroke="hsl(228.5, 77.2%, 51.5%)" stroke-width="1.5"></path><path d="M1149.77 72.4L1149.77 72.4" stroke="hsl(228.5, 77.2%, 51.5%)" stroke-width="1.5"></path><path d="M1149.77 72.4L1295.33 73.22" stroke="hsl(228.5, 77.2%, 51.5%)" stroke-width="1.5"></path><path d="M1149.77 72.4L1297.02 -74.6" stroke="hsl(228.5, 77.2%, 51.5%)" stroke-width="1.5"></path><path d="M1149.77 72.4L1295.32 224.25" stroke="hsl(228.5, 77.2%, 51.5%)" stroke-width="1.5"></path><path d="M1094.27 384.19L1094.27 384.19" stroke="hsl(228.5, 77.2%, 51.5%)" stroke-width="1.5"></path><path d="M1094.27 384.19L1241.34 355.26" stroke="hsl(228.5, 77.2%, 51.5%)" stroke-width="1.5"></path><path d="M1146.17 554.34L1146.17 554.34" stroke="hsl(228.5, 77.2%, 51.5%)" stroke-width="1.5"></path><path d="M1146.17 554.34L1095.15 650.56" stroke="hsl(228.5, 77.2%, 51.5%)" stroke-width="1.5"></path><path d="M1146.17 554.34L998.91 492.75" stroke="hsl(228.5, 77.2%, 51.5%)" stroke-width="1.5"></path><path d="M1146.17 554.34L1094.27 384.19" stroke="hsl(228.5, 77.2%, 51.5%)" stroke-width="1.5"></path><path d="M1095.15 650.56L1095.15 650.56" stroke="hsl(228.5, 77.2%, 51.5%)" stroke-width="1.5"></path><path d="M1095.15 650.56L998.91 492.75" stroke="hsl(228.5, 77.2%, 51.5%)" stroke-width="1.5"></path><path d="M1297.02 -74.6L1297.02 -74.6" stroke="hsl(228.5, 77.2%, 51.5%)" stroke-width="1.5"></path><path d="M1297.02 -74.6L1393.11 -72.29" stroke="hsl(228.5, 77.2%, 51.5%)" stroke-width="1.5"></path><path d="M1297.02 -74.6L1295.33 73.22" stroke="hsl(228.5, 77.2%, 51.5%)" stroke-width="1.5"></path><path d="M1295.33 73.22L1295.33 73.22" stroke="hsl(228.5, 77.2%, 51.5%)" stroke-width="1.5"></path><path d="M1295.33 73.22L1405.4 93.39" stroke="hsl(228.5, 77.2%, 51.5%)" stroke-width="1.5"></path><path d="M1295.33 73.22L1295.32 224.25" stroke="hsl(228.5, 77.2%, 51.5%)" stroke-width="1.5"></path><path d="M1295.33 73.22L1393.11 -72.29" stroke="hsl(228.5, 77.2%, 51.5%)" stroke-width="1.5"></path><path d="M1295.32 224.25L1295.32 224.25" stroke="hsl(228.5, 77.2%, 51.5%)" stroke-width="1.5"></path><path d="M1295.32 224.25L1429.21 251.53" stroke="hsl(228.5, 77.2%, 51.5%)" stroke-width="1.5"></path><path d="M1295.32 224.25L1241.34 355.26" stroke="hsl(228.5, 77.2%, 51.5%)" stroke-width="1.5"></path><path d="M1295.32 224.25L1405.4 93.39" stroke="hsl(228.5, 77.2%, 51.5%)" stroke-width="1.5"></path><path d="M1241.34 355.26L1241.34 355.26" stroke="hsl(228.5, 77.2%, 51.5%)" stroke-width="1.5"></path><path d="M1393.11 -72.29L1393.11 -72.29" stroke="hsl(228.5, 77.2%, 51.5%)" stroke-width="1.5"></path><path d="M1393.11 -72.29L1405.4 93.39" stroke="hsl(228.5, 77.2%, 51.5%)" stroke-width="1.5"></path><path d="M1393.11 -72.29L1562.79 -78.87" stroke="hsl(228.5, 77.2%, 51.5%)" stroke-width="1.5"></path><path d="M1393.11 -72.29L1603.58 104.15" stroke="hsl(228.5, 77.2%, 51.5%)" stroke-width="1.5"></path><path d="M1405.4 93.39L1405.4 93.39" stroke="hsl(228.5, 77.2%, 51.5%)" stroke-width="1.5"></path><path d="M1405.4 93.39L1429.21 251.53" stroke="hsl(228.5, 77.2%, 51.5%)" stroke-width="1.5"></path><path d="M1429.21 251.53L1429.21 251.53" stroke="hsl(228.5, 77.2%, 51.5%)" stroke-width="1.5"></path><path d="M1429.21 251.53L1411.29 385.53" stroke="hsl(228.5, 77.2%, 51.5%)" stroke-width="1.5"></path><path d="M1411.29 385.53L1411.29 385.53" stroke="hsl(228.5, 77.2%, 51.5%)" stroke-width="1.5"></path><path d="M1411.29 385.53L1418.01 488.13" stroke="hsl(228.5, 77.2%, 51.5%)" stroke-width="1.5"></path><path d="M1418.01 488.13L1418.01 488.13" stroke="hsl(228.5, 77.2%, 51.5%)" stroke-width="1.5"></path><path d="M1418.01 488.13L1594.96 537.31" stroke="hsl(228.5, 77.2%, 51.5%)" stroke-width="1.5"></path><path d="M1451.11 695.24L1451.11 695.24" stroke="hsl(228.5, 77.2%, 51.5%)" stroke-width="1.5"></path><path d="M1451.11 695.24L1608.76 637.94" stroke="hsl(228.5, 77.2%, 51.5%)" stroke-width="1.5"></path><path d="M1562.79 -78.87L1562.79 -78.87" stroke="hsl(228.5, 77.2%, 51.5%)" stroke-width="1.5"></path><path d="M1562.79 -78.87L1603.58 104.15" stroke="hsl(228.5, 77.2%, 51.5%)" stroke-width="1.5"></path><path d="M1562.79 -78.87L1405.4 93.39" stroke="hsl(228.5, 77.2%, 51.5%)" stroke-width="1.5"></path><path d="M1603.58 104.15L1603.58 104.15" stroke="hsl(228.5, 77.2%, 51.5%)" stroke-width="1.5"></path><path d="M1594.96 537.31L1594.96 537.31" stroke="hsl(228.5, 77.2%, 51.5%)" stroke-width="1.5"></path><path d="M1594.96 537.31L1608.76 637.94" stroke="hsl(228.5, 77.2%, 51.5%)" stroke-width="1.5"></path><path d="M1608.76 637.94L1608.76 637.94" stroke="hsl(228.5, 77.2%, 51.5%)" stroke-width="1.5"></path><path d="M1608.76 637.94L1418.01 488.13" stroke="hsl(228.5, 77.2%, 51.5%)" stroke-width="1.5"></path><path d="M1608.76 637.94L1581.03 349.53" stroke="hsl(228.5, 77.2%, 51.5%)" stroke-width="1.5"></path><path d="M1608.76 637.94L1308.93 647.06" stroke="hsl(228.5, 77.2%, 51.5%)" stroke-width="1.5"></path><path d="M1608.76 637.94L1411.29 385.53" stroke="hsl(228.5, 77.2%, 51.5%)" stroke-width="1.5"></path><circle r="25" cx="188.62" cy="529.03" fill="url(&quot;#SvgjsRadialGradient1001&quot;)"></circle><circle r="25" cx="815.72" cy="675.26" fill="url(&quot;#SvgjsRadialGradient1001&quot;)"></circle><circle r="25" cx="1136.03" cy="217.74" fill="url(&quot;#SvgjsRadialGradient1001&quot;)"></circle><circle r="25" cx="1280.69" cy="556.77" fill="url(&quot;#SvgjsRadialGradient1001&quot;)"></circle><circle r="25" cx="1308.93" cy="647.06" fill="url(&quot;#SvgjsRadialGradient1001&quot;)"></circle><circle r="25" cx="1601.31" cy="194.94" fill="url(&quot;#SvgjsRadialGradient1001&quot;)"></circle><circle r="25" cx="1581.03" cy="349.53" fill="url(&quot;#SvgjsRadialGradient1001&quot;)"></circle><circle r="5" cx="-69.36" cy="549.09" fill="#8b9ad9"></circle><circle r="5" cx="-76.62" cy="689.31" fill="#8b9ad9"></circle><circle r="5" cx="98.21" cy="532.51" fill="#8b9ad9"></circle><circle r="5" cx="218.4" cy="673.1" fill="#8b9ad9"></circle><circle r="5" cx="367.31" cy="552.16" fill="#8b9ad9"></circle><circle r="5" cx="344" cy="651.1" fill="#8b9ad9"></circle><circle r="5" cx="496.2" cy="548.37" fill="#8b9ad9"></circle><circle r="5" cx="544.3" cy="665.88" fill="#8b9ad9"></circle><circle r="5" cx="672.13" cy="395.62" fill="#8b9ad9"></circle><circle r="5" cx="672.24" cy="523.26" fill="#8b9ad9"></circle><circle r="5" cx="649.26" cy="644.71" fill="#8b9ad9"></circle><circle r="5" cx="810.09" cy="391.04" fill="#8b9ad9"></circle><circle r="5" cx="820.95" cy="490.64" fill="#8b9ad9"></circle><circle r="5" cx="939.48" cy="403.33" fill="#8b9ad9"></circle><circle r="5" cx="998.91" cy="492.75" fill="#8b9ad9"></circle><circle r="5" cx="1003.8" cy="683.39" fill="#8b9ad9"></circle><circle r="5" cx="1149.77" cy="72.4" fill="#8b9ad9"></circle><circle r="5" cx="1094.27" cy="384.19" fill="#8b9ad9"></circle><circle r="5" cx="1146.17" cy="554.34" fill="#8b9ad9"></circle><circle r="5" cx="1095.15" cy="650.56" fill="#8b9ad9"></circle><circle r="5" cx="1297.02" cy="-74.6" fill="#8b9ad9"></circle><circle r="5" cx="1295.33" cy="73.22" fill="#8b9ad9"></circle><circle r="5" cx="1295.32" cy="224.25" fill="#8b9ad9"></circle><circle r="5" cx="1241.34" cy="355.26" fill="#8b9ad9"></circle><circle r="5" cx="1393.11" cy="-72.29" fill="#8b9ad9"></circle><circle r="5" cx="1405.4" cy="93.39" fill="#8b9ad9"></circle><circle r="5" cx="1429.21" cy="251.53" fill="#8b9ad9"></circle><circle r="5" cx="1411.29" cy="385.53" fill="#8b9ad9"></circle><circle r="5" cx="1418.01" cy="488.13" fill="#8b9ad9"></circle><circle r="5" cx="1451.11" cy="695.24" fill="#8b9ad9"></circle><circle r="5" cx="1562.79" cy="-78.87" fill="#8b9ad9"></circle><circle r="5" cx="1603.58" cy="104.15" fill="#8b9ad9"></circle><circle r="5" cx="1594.96" cy="537.31" fill="#8b9ad9"></circle><circle r="5" cx="1608.76" cy="637.94" fill="#8b9ad9"></circle></g><defs><mask id="SvgjsMask1000"><rect width="1440" height="560" fill="#ffffff"></rect></mask><radialGradient id="SvgjsRadialGradient1001"><stop stop-color="#ffffff" offset="0.1"></stop><stop stop-color="#1735b3" offset="0.2"></stop><stop stop-color="rgba(23, 53, 179, 0)" offset="1"></stop></radialGradient></defs></svg>